<?xml version="1.0" encoding="UTF-8" standalone="no"?>
<!DOCTYPE svg PUBLIC "-//W3C//DTD SVG 1.1//EN" "http://www.w3.org/Graphics/SVG/1.1/DTD/svg11.dtd">
<svg width="100%" height="100%" viewBox="0 0 81 81" version="1.1" xmlns="http://www.w3.org/2000/svg" xmlns:xlink="http://www.w3.org/1999/xlink" xml:space="preserve" xmlns:serif="http://www.serif.com/" style="fill-rule:evenodd;clip-rule:evenodd;">
    <g transform="matrix(1,0,0,1,-1409.385164,-620.311024)">
        <g id="Regular-S" transform="matrix(1,0,0,1,1403.58,696)">
            <path d="M46.24,4.15C68.018,4.15 85.693,-13.477 85.693,-35.254C85.693,-57.031 68.018,-74.658 46.24,-74.658C24.512,-74.658 6.836,-57.031 6.836,-35.254C6.836,-13.477 24.512,4.15 46.24,4.15ZM46.24,-3.271C28.564,-3.271 14.307,-17.578 14.307,-35.254C14.307,-52.93 28.564,-67.236 46.24,-67.236C63.916,-67.236 78.223,-52.93 78.223,-35.254C78.223,-17.578 63.916,-3.271 46.24,-3.271Z" style="fill-rule:nonzero;stroke:black;stroke-width:0.5px;"/>
            <path d="M49.853,-21.045L49.853,-49.512C49.853,-51.758 48.389,-53.272 46.143,-53.272C43.994,-53.272 42.529,-51.758 42.529,-49.512L42.529,-21.045C42.529,-18.848 43.994,-17.334 46.143,-17.334C48.389,-17.334 49.853,-18.848 49.853,-21.045ZM32.031,-31.641L60.449,-31.641C62.647,-31.641 64.16,-33.105 64.16,-35.254C64.16,-37.451 62.647,-38.965 60.449,-38.965L32.031,-38.965C29.785,-38.965 28.271,-37.451 28.271,-35.254C28.271,-33.105 29.785,-31.641 32.031,-31.641Z" style="fill-rule:nonzero;stroke:black;stroke-width:0.5px;"/>
        </g>
    </g>
</svg>
