<?xml version="1.0" encoding="UTF-8" standalone="no"?>
<!DOCTYPE svg PUBLIC "-//W3C//DTD SVG 1.1//EN" "http://www.w3.org/Graphics/SVG/1.1/DTD/svg11.dtd">
<svg width="100%" height="100%" viewBox="0 0 77 88" version="1.1" xmlns="http://www.w3.org/2000/svg" xmlns:xlink="http://www.w3.org/1999/xlink" xml:space="preserve" xmlns:serif="http://www.serif.com/" style="fill-rule:evenodd;clip-rule:evenodd;">
    <g transform="matrix(1,0,0,1,-1411.508604,-613.328624)">
        <g transform="matrix(1,0,0,1,1406.68,696)">
            <path d="M31.885,-8.545C33.545,-8.545 34.619,-9.57 34.57,-11.084L33.447,-51.123C33.398,-52.685 32.324,-53.662 30.762,-53.662C29.15,-53.662 28.027,-52.637 28.076,-51.123L29.199,-11.084C29.248,-9.521 30.322,-8.545 31.885,-8.545ZM43.164,-8.545C44.824,-8.545 45.947,-9.57 45.947,-11.084L45.947,-51.123C45.947,-52.637 44.824,-53.662 43.164,-53.662C41.504,-53.662 40.381,-52.637 40.381,-51.123L40.381,-11.084C40.381,-9.57 41.504,-8.545 43.164,-8.545ZM54.492,-8.545C56.006,-8.545 57.129,-9.521 57.178,-11.084L58.252,-51.123C58.301,-52.637 57.227,-53.662 55.566,-53.662C54.004,-53.662 52.93,-52.637 52.881,-51.123L51.807,-11.084C51.758,-9.57 52.832,-8.545 54.492,-8.545ZM26.123,-63.623L33.057,-63.623L33.057,-71.826C33.057,-73.828 34.473,-75.147 36.523,-75.147L49.756,-75.147C51.758,-75.147 53.174,-73.828 53.174,-71.826L53.174,-63.623L60.156,-63.623L60.156,-72.314C60.156,-78.076 56.397,-81.641 50.244,-81.641L35.986,-81.641C29.883,-81.641 26.123,-78.076 26.123,-72.314L26.123,-63.623ZM9.082,-60.156L77.246,-60.156C79.053,-60.156 80.469,-61.621 80.469,-63.428C80.469,-65.234 79.004,-66.699 77.246,-66.699L9.082,-66.699C7.373,-66.699 5.859,-65.234 5.859,-63.428C5.859,-61.621 7.373,-60.156 9.082,-60.156ZM25.537,4.053L60.84,4.053C66.65,4.053 70.41,0.439 70.703,-5.42L73.242,-60.889L66.26,-60.889L63.818,-6.152C63.721,-3.955 62.256,-2.49 60.107,-2.49L26.172,-2.49C24.121,-2.49 22.607,-4.004 22.51,-6.152L19.922,-60.889L13.086,-60.889L15.674,-5.371C15.967,0.488 19.629,4.053 25.537,4.053Z" style="fill-rule:nonzero;stroke:black;stroke-width:0.5px;"/>
        </g>
    </g>
</svg>
